<svg xmlns="http://www.w3.org/2000/svg" version="1.1" xmlns:xlink="http://www.w3.org/1999/xlink" xmlns:svgjs="http://svgjs.dev/svgjs" width="100%" height="100%" viewBox="0 0 1000 600"><rect width="1000" height="600" x="0" y="0" fill="black"/><g><circle r="166.66666666666666" cx="343.47403971354163" cy="365.69621746695077" fill="#04ff8a" transform="matrix(0.7069844550862924,0,0,0.7069844550862925,0,41.45849035974068)"/><path d="M393.6334629195491 334.57823230698637Q393.6334629195491 353.32075909615014 380.80962880064766 365.69620740669836Q368.01568706896967 378.0716557172467 341.74027869947224 378.0716557172467L341.74027869947224 378.0716557172467L312.92401741597337 378.0716557172467L312.92401741597337 440.69620695057677L293.3146113973268 440.69620695057677L293.3146113973268 290.69620786281996L341.74027869947224 290.69620786281996Q367.14880783948684 290.69620786281996 380.391135379518 302.9520866244741Q393.6334629195491 315.2079653861282 393.6334629195491 334.57823230698637L393.6334629195491 334.57823230698637ZM341.74027869947224 361.92976661653154Q358.1213068979758 361.92976661653154 365.86343518887435 354.81537845732737Q373.6055634797729 347.73088268534684 373.6055634797729 334.57823230698637L373.6055634797729 334.57823230698637Q373.6055634797729 306.8380969635351 341.74027869947224 306.8380969635351L341.74027869947224 306.8380969635351L312.92401741597337 306.8380969635351L312.92401741597337 361.92976661653154L341.74027869947224 361.92976661653154Z " fill="white" transform="matrix(0.7069844550862924,0,0,0.7069844550862925,0,41.45849035974068)"/><path d="M663.3498081124619 322.9167019726799L610.4512600338194 322.9167019726799L610.4512600338194 366.343200835675L657.7597462802765 366.343200835675L657.7597462802765 380.3183554161384L610.4512600338194 380.3183554161384L610.4512600338194 425.0388500736209L663.3498081124619 425.0388500736209L663.3498081124619 439.01400465408415L593.4740352101454 439.01400465408415L593.4740352101454 308.9415473922166L663.3498081124619 308.9415473922166L663.3498081124619 322.9167019726799ZM725.2286870048465 440.69619918691774Q713.4792051909014 440.69619918691774 704.1624354705926 436.6848122240069Q694.8456657502837 432.6734252610962 689.4367633293266 425.5046885596363Q684.0537408242593 418.3359518581765 683.4843826746849 409.0191821378676L683.4843826746849 409.0191821378676L701.0050857320434 409.0191821378676Q701.7556032928461 416.6537573253429 708.1738224335033 421.4933015967256Q714.5920415741606 426.33284586810817 725.0475275936183 426.33284586810817L725.0475275936183 426.33284586810817Q734.7266161363837 426.33284586810817 740.3166779685689 422.0626597463Q745.9067398007543 417.76659370860204 745.9067398007543 411.24485490438576L745.9067398007543 411.24485490438576Q745.9067398007543 404.54195668894135 739.9543591461124 401.2810872868333Q733.976098575581 398.0202178847252 721.501979116723 394.8628681461761L721.501979116723 394.8628681461761Q710.1406960411241 391.8607979029655 702.9460794237746 388.8069678279753Q695.7773427223146 385.7272578370954 690.6531193761448 379.67135751889464Q685.5288960299749 373.615457200694 685.5288960299749 363.72932933081063L685.5288960299749 363.72932933081063Q685.5288960299749 355.9135947321071 690.1872808901293 349.3918559278909Q694.8456657502837 342.87011712367473 703.41191790979 339.03988957199215Q712.0040499851859 335.2355419361994 722.9771343224386 335.2355419361994L722.9771343224386 335.2355419361994Q739.9543591461124 335.2355419361994 750.3839652496804 343.80179409570553Q760.8135713532484 352.36804625521177 761.5640889140511 367.27487780770593L761.5640889140511 367.27487780770593L744.6127440062669 367.27487780770593Q744.0433858566925 359.2521038818844 738.1686449497199 354.41255961050183Q732.2939040427474 349.57301533911914 722.4336560887539 349.57301533911914L722.4336560887539 349.57301533911914Q713.2980457796732 349.57301533911914 707.8891433587162 353.4808826384709Q702.480240937759 357.3887499378227 702.480240937759 363.72932933081063L702.480240937759 363.72932933081063Q702.480240937759 368.7759129293113 705.7411103398672 372.0367823314193Q709.0019797419752 375.29765173352746 713.945043676917 377.2386454252585Q718.8881076118586 379.20551903287924 727.635519182593 381.61235121062566L727.635519182593 381.61235121062566Q738.6344834357353 384.61442145383637 745.5444209782978 387.4870921175982Q752.4284786049705 390.38564269724986 757.3715425399121 396.15686394066336Q762.3146064748537 401.92808518407696 762.4957658860819 411.24485490438576L762.4957658860819 411.24485490438576Q762.4957658860819 419.62994765266376 757.8373810259275 426.33284586810817Q753.1789961657731 433.0616239994424 744.6903837539361 436.86597163523516Q736.2276512579889 440.69619918691774 725.2286870048465 440.69619918691774L725.2286870048465 440.69619918691774ZM905.5858208404923 336.89185655314316L922.3560063370481 336.89185655314316L890.4978298767699 439.01400465408415L872.9771268194112 439.01400465408415L848.3912067241517 357.95810808739714L823.8052866288922 439.01400465408415L806.2845835715336 439.01400465408415L774.2193677841373 336.89185655314316L791.5589114302677 336.89185655314316L815.031995142268 422.6061379799846L840.3684327983301 336.89185655314316L857.7079764444605 336.89185655314316L882.5009358668381 422.8131773071027L905.5858208404923 336.89185655314316ZM932.8114923565058 387.59061178115724Q932.8114923565058 371.9332626678604 939.126191833604 360.1061411062461Q945.4667712265921 348.27901954463175 956.5692551432935 341.7572807404156Q967.6458591441051 335.2355419361994 981.258694902112 335.2355419361994L981.258694902112 335.2355419361994Q994.6644913330008 335.2355419361994 1004.550619202884 341.0067631796129Q1014.4108671568777 346.7779844230265 1019.2504114282602 355.52539599376087L1019.2504114282602 355.52539599376087L1019.2504114282602 336.89185655314316L1036.4087956631624 336.89185655314316L1036.4087956631624 439.01400465408415L1019.2504114282602 439.01400465408415L1019.2504114282602 420.01814639100996Q1014.2297077456494 428.94671737297267 1004.2659401280969 434.8214582799452Q994.3021725105443 440.69619918691774 981.0516555749939 440.69619918691774L981.0516555749939 440.69619918691774Q967.4646997328769 440.69619918691774 956.4657354797345 433.99330097147333Q945.4667712265921 427.2645228401391 939.126191833604 415.15272220373754Q932.8114923565058 403.0409215673361 932.8114923565058 387.59061178115724L932.8114923565058 387.59061178115724ZM1019.2504114282602 387.7717711923855Q1019.2504114282602 376.2293287055584 1014.5920265681059 367.6371966301624Q1009.9336417079514 359.0709444706562 1002.014387445689 354.51607927406076Q994.0951331834264 349.9353341615756 984.5972040518893 349.9353341615756L984.5972040518893 349.9353341615756Q975.0992749203522 349.9353341615756 967.2835403216486 354.41255961050183Q959.4419258070552 358.88978505942794 954.783540946901 367.45603721893417Q950.1251560867465 376.0222893784404 950.1251560867465 387.59061178115724L950.1251560867465 387.59061178115724Q950.1251560867465 399.31421367921246 954.783540946901 407.98398550227773Q959.4419258070552 416.6537573253429 967.2835403216486 421.2086225219383Q975.0992749203522 425.78936763442357 984.5972040518893 425.78936763442357L984.5972040518893 425.78936763442357Q994.0951331834264 425.78936763442357 1002.014387445689 421.2086225219383Q1009.9336417079514 416.6537573253429 1014.5920265681059 407.98398550227773Q1019.2504114282602 399.31421367921246 1019.2504114282602 387.7717711923855L1019.2504114282602 387.7717711923855ZM1082.0609672926757 353.4808826384709Q1086.538192741602 344.73347106773645 1094.819765826321 339.89392679635375Q1103.1013389110399 335.02850260908144 1115.0319801362134 335.02850260908144L1115.0319801362134 335.02850260908144L1115.0319801362134 352.54920566644L1110.5547546872872 352.54920566644Q1082.0609672926757 352.54920566644 1082.0609672926757 383.4757051546875L1082.0609672926757 383.4757051546875L1082.0609672926757 439.01400465408415L1065.1096223848917 439.01400465408415L1065.1096223848917 336.89185655314316L1082.0609672926757 336.89185655314316L1082.0609672926757 353.4808826384709ZM1126.7814619501582 290.69620668994503L1143.163448708368 290.69620668994503L1140.9377759418498 327.7821261599523L1129.1882941279048 327.7821261599523L1126.7814619501582 290.69620668994503ZM1200.3839427405983 440.69619918691774Q1188.6344609266532 440.69619918691774 1179.3176912063445 436.6848122240069Q1170.0009214860356 432.6734252610962 1164.5920190650786 425.5046885596363Q1159.2089965600112 418.3359518581765 1158.6396384104366 409.0191821378676L1158.6396384104366 409.0191821378676L1176.1603414677952 409.0191821378676Q1176.9108590285978 416.6537573253429 1183.3290781692554 421.4933015967256Q1189.7472973099125 426.33284586810817 1200.20278332937 426.33284586810817L1200.20278332937 426.33284586810817Q1209.8818718721354 426.33284586810817 1215.4719337043207 422.0626597463Q1221.0619955365062 417.76659370860204 1221.0619955365062 411.24485490438576L1221.0619955365062 411.24485490438576Q1221.0619955365062 404.54195668894135 1215.1096148818644 401.2810872868333Q1209.1313543113329 398.0202178847252 1196.6572348524746 394.8628681461761L1196.6572348524746 394.8628681461761Q1185.2959517768759 391.8607979029655 1178.1013351595263 388.8069678279753Q1170.9325984580664 385.7272578370954 1165.8083751118966 379.67135751889464Q1160.6841517657267 373.615457200694 1160.6841517657267 363.72932933081063L1160.6841517657267 363.72932933081063Q1160.6841517657267 355.9135947321071 1165.3425366258812 349.3918559278909Q1170.0009214860356 342.87011712367473 1178.5671736455417 339.03988957199215Q1187.1593057209377 335.2355419361994 1198.1323900581904 335.2355419361994L1198.1323900581904 335.2355419361994Q1215.1096148818644 335.2355419361994 1225.5392209854324 343.80179409570553Q1235.9688270890003 352.36804625521177 1236.719344649803 367.27487780770593L1236.719344649803 367.27487780770593L1219.7679997420187 367.27487780770593Q1219.1986415924441 359.2521038818844 1213.3239006854717 354.41255961050183Q1207.4491597784993 349.57301533911914 1197.5889118245057 349.57301533911914L1197.5889118245057 349.57301533911914Q1188.4533015154252 349.57301533911914 1183.044399094468 353.4808826384709Q1177.6354966735107 357.3887499378227 1177.6354966735107 363.72932933081063L1177.6354966735107 363.72932933081063Q1177.6354966735107 368.7759129293113 1180.896366075619 372.0367823314193Q1184.157235477727 375.29765173352746 1189.1002994126688 377.2386454252585Q1194.0433633476105 379.20551903287924 1202.7907749183448 381.61235121062566L1202.7907749183448 381.61235121062566Q1213.789739171487 384.61442145383637 1220.6996767140497 387.4870921175982Q1227.5837343407222 390.38564269724986 1232.5267982756639 396.15686394066336Q1237.4698622106055 401.92808518407696 1237.6510216218337 411.24485490438576L1237.6510216218337 411.24485490438576Q1237.6510216218337 419.62994765266376 1232.9926367616793 426.33284586810817Q1228.3342519015248 433.0616239994424 1219.845639489688 436.86597163523516Q1211.3829069937408 440.69619918691774 1200.3839427405983 440.69619918691774L1200.3839427405983 440.69619918691774Z " fill="white" transform="matrix(0.7069844550862924,0,0,0.7069844550862925,0,41.45849035974068)"/></g></svg>